<svg width="52" height="52" viewBox="0 0 52 52" fill="none" xmlns="http://www.w3.org/2000/svg">
<g id="Group 12">
<g id="Group">
<g id="Group_2">
<path id="Vector" d="M26.1016 21.3281C23.5814 21.3281 21.5312 23.3783 21.5312 25.8984C21.5312 28.4186 23.5814 30.4688 26.1016 30.4688C28.6217 30.4688 30.6719 28.4186 30.6719 25.8984C30.6719 23.3783 28.6217 21.3281 26.1016 21.3281Z" fill="#F50400"/>
</g>
</g>
<g id="Group_3">
<g id="Group_4">
<path id="Vector_2" d="M25.8984 0C11.6177 0 0 11.6177 0 25.8984C0 40.1791 11.6177 52 25.8984 52C40.1791 52 52 40.1791 52 25.8984C52 11.6177 40.1791 0 25.8984 0ZM36.7656 33.5156C34.7066 33.5156 32.8908 32.4836 31.7873 30.916C30.3905 32.4971 28.3719 33.5156 26.1016 33.5156C21.9016 33.5156 18.4844 30.0984 18.4844 25.8984C18.4844 21.6985 21.9016 18.2812 26.1016 18.2812C27.8228 18.2812 29.3948 18.8769 30.6719 19.8436V19.8047C30.6719 18.9626 31.3533 18.2812 32.1953 18.2812C33.0374 18.2812 33.7188 18.9626 33.7188 19.8047C33.7188 23.1928 33.7188 24.0322 33.7188 27.4219C33.7188 29.1015 35.086 30.4688 36.7656 30.4688C38.4453 30.4688 39.8125 29.1015 39.8125 27.4219C39.8125 17.2259 33.0655 12.1875 26.1016 12.1875C18.5409 12.1875 12.3906 18.3378 12.3906 25.8984C12.3906 33.4591 18.5409 39.6094 26.1016 39.6094C29.1484 39.6094 32.0302 38.6335 34.4359 36.7856C36.0428 35.559 37.8829 37.9805 36.2925 39.2017C33.3484 41.4616 29.8254 42.6562 26.1016 42.6562C16.8613 42.6562 9.34375 35.1387 9.34375 25.8984C9.34375 16.6582 16.8613 9.14062 26.1016 9.14062C34.5208 9.14062 42.8594 15.3496 42.8594 27.4219C42.8594 30.7827 40.1264 33.5156 36.7656 33.5156Z" fill="#F50400"/>
</g>
</g>
</g>
</svg>
