<svg width="22" height="21" viewBox="0 0 22 21" fill="none" xmlns="http://www.w3.org/2000/svg">
<path d="M11.0008 20.9636C10.6065 20.9636 10.2122 20.813 9.91158 20.5126L0.451579 11.0525C-0.150201 10.4507 -0.150201 9.47499 0.451579 8.87345C1.05312 8.27192 2.0286 8.27192 2.63043 8.87345L11.0008 17.2443L19.3711 8.87375C19.9729 8.27221 20.9483 8.27221 21.5498 8.87375C22.1519 9.47528 22.1519 10.451 21.5498 11.0527L12.0899 20.5128C11.7892 20.8134 11.3949 20.9636 11.0008 20.9636Z" fill="#F50400"/>
<path d="M11.0005 12.5413C10.6062 12.5413 10.212 12.3907 9.91134 12.0903L0.451335 2.63015C-0.150445 2.02837 -0.150445 1.05269 0.451335 0.451152C1.05287 -0.150384 2.02836 -0.150384 2.63019 0.451152L11.0005 8.82197L19.3709 0.451445C19.9727 -0.150092 20.9481 -0.150092 21.5496 0.451445C22.1516 1.05298 22.1516 2.02866 21.5496 2.63044L12.0897 12.0905C11.7889 12.3911 11.3947 12.5413 11.0005 12.5413Z" fill="#F50400"/>
</svg>
