<svg width="52" height="52" viewBox="0 0 52 52" fill="none" xmlns="http://www.w3.org/2000/svg">
<g id="Group 13">
<path id="Vector" d="M26 0C11.6428 0 0 11.6428 0 26C0 40.3572 11.6428 52 26 52C40.3572 52 52 40.3572 52 26C52 11.6428 40.3572 0 26 0ZM26.5511 41.138C26.5507 41.138 26.5515 41.138 26.5511 41.138H26.5447C23.9402 41.1368 21.3809 40.4838 19.108 39.2444L10.8589 41.4077L13.0667 33.3462C11.7047 30.9873 10.9882 28.3109 10.9894 25.5692C10.993 16.9919 17.9738 10.0138 26.5511 10.0138C30.7135 10.0154 34.6209 11.6357 37.5587 14.5758C40.4969 17.5164 42.1139 21.4249 42.1123 25.5815C42.1088 34.1591 35.1271 41.138 26.5511 41.138Z" fill="#F50400"/>
<path id="Vector_2" d="M26.5562 12.6414C19.4218 12.6414 13.6196 18.4411 13.6165 25.5703C13.6157 28.0134 14.2996 30.3926 15.5941 32.4512L15.9016 32.9404L14.5948 37.7118L19.49 36.428L19.9625 36.7081C21.9482 37.8864 24.2246 38.5096 26.5454 38.5104H26.5506C33.6794 38.5104 39.4816 32.7103 39.4847 25.5807C39.4859 22.1255 38.1418 18.8771 35.7 16.4333C33.2581 13.9894 30.0105 12.6425 26.5562 12.6414ZM34.1638 31.1293C33.8397 32.037 32.2865 32.8658 31.5395 32.9777C30.8694 33.0776 30.022 33.1193 29.0905 32.8237C28.5255 32.6444 27.8015 32.4052 26.8735 32.0049C22.9733 30.3212 20.4259 26.3951 20.2315 26.1357C20.0371 25.8762 18.6438 24.0279 18.6438 22.1144C18.6438 20.2014 19.6483 19.2608 20.0046 18.872C20.3612 18.4828 20.7826 18.3856 21.0416 18.3856C21.3007 18.3856 21.5602 18.388 21.7867 18.3991C22.0255 18.411 22.3461 18.3082 22.6615 19.0664C22.9856 19.8448 23.7632 21.7578 23.8604 21.9522C23.9576 22.147 24.0222 22.3739 23.8929 22.6334C23.7632 22.8928 23.3323 23.4526 22.9209 23.9628C22.7484 24.1766 22.5234 24.3671 22.7503 24.7563C22.9769 25.1451 23.7576 26.4182 24.9133 27.4489C26.3987 28.7731 27.6515 29.1833 28.0403 29.3781C28.4287 29.5725 28.6556 29.54 28.8826 29.2809C29.1091 29.0215 29.8546 28.1459 30.1136 27.7567C30.3727 27.3675 30.6321 27.4326 30.9884 27.5623C31.3451 27.6917 33.2565 28.6323 33.6453 28.8267C34.0341 29.0215 34.2932 29.1187 34.3904 29.2809C34.4879 29.4432 34.4879 30.2212 34.1638 31.1293Z" fill="#F50400"/>
</g>
</svg>
